<svg xmlns="http://www.w3.org/2000/svg" viewBox="0 0 1200 440" width="1200" height="440" role="img" aria-label="Night skyline banner for cybetyar, full-stack developer">
<title>ß€₪¢€ ß · cybetyar</title>
<defs>
<linearGradient id="dark-sky" x1="0" y1="0" x2="0" y2="1"><stop offset="0" stop-color="#05070f"/><stop offset="0.55" stop-color="#0b1122"/><stop offset="1" stop-color="#141a2e"/></linearGradient>
<radialGradient id="dark-glow" cx="0.62" cy="0.86" r="0.72"><stop offset="0" stop-color="#3a2438" stop-opacity="0.55"/><stop offset="1" stop-color="#3a2438" stop-opacity="0"/></radialGradient>
<linearGradient id="dark-fog" x1="0" y1="0" x2="0" y2="1"><stop offset="0" stop-color="#1a2338" stop-opacity="0"/><stop offset="1" stop-color="#1a2338" stop-opacity="0.5"/></linearGradient>
<clipPath id="dark-frame"><rect x="0" y="0" width="1200" height="440" rx="10"/></clipPath>
</defs>
<g clip-path="url(#dark-frame)">
<rect width="1200" height="440" fill="url(#dark-sky)"/>
<rect width="1200" height="440" fill="url(#dark-glow)"/>
<g fill="#e9e2cf" opacity="0.8"><circle cx="1081" cy="60.6" r="1.2"><animate attributeName="opacity" values="0.15;0.85;0.15" dur="7.0s" begin="2.9s" repeatCount="indefinite"/></circle><circle cx="104.8" cy="175.4" r="1.3"><animate attributeName="opacity" values="0.15;0.85;0.15" dur="7.4s" begin="5.0s" repeatCount="indefinite"/></circle><circle cx="1088.8" cy="137.4" r="1.2"><animate attributeName="opacity" values="0.15;0.85;0.15" dur="5.6s" begin="5.2s" repeatCount="indefinite"/></circle><circle cx="426" cy="183.5" r="1.7"><animate attributeName="opacity" values="0.15;0.85;0.15" dur="5.1s" begin="4.4s" repeatCount="indefinite"/></circle><circle cx="1092" cy="170.8" r="1.0"><animate attributeName="opacity" values="0.15;0.85;0.15" dur="5.9s" begin="6.2s" repeatCount="indefinite"/></circle><circle cx="439.1" cy="135.7" r="1.2"><animate attributeName="opacity" values="0.15;0.85;0.15" dur="5.3s" begin="4.0s" repeatCount="indefinite"/></circle><circle cx="635" cy="176.8" r="1.1"><animate attributeName="opacity" values="0.15;0.85;0.15" dur="3.2s" begin="4.3s" repeatCount="indefinite"/></circle><circle cx="563.2" cy="135.3" r="1.6"><animate attributeName="opacity" values="0.15;0.85;0.15" dur="6.9s" begin="7.0s" repeatCount="indefinite"/></circle><circle cx="816.5" cy="158.5" r="1.0"><animate attributeName="opacity" values="0.15;0.85;0.15" dur="7.5s" begin="1.3s" repeatCount="indefinite"/></circle><circle cx="1076.3" cy="223.9" r="0.7"><animate attributeName="opacity" values="0.15;0.85;0.15" dur="9.8s" begin="6.9s" repeatCount="indefinite"/></circle><circle cx="2.6" cy="36.8" r="0.7"><animate attributeName="opacity" values="0.15;0.85;0.15" dur="9.9s" begin="0.8s" repeatCount="indefinite"/></circle><circle cx="224.2" cy="37.7" r="1.6"><animate attributeName="opacity" values="0.15;0.85;0.15" dur="5.8s" begin="6.0s" repeatCount="indefinite"/></circle><circle cx="249.7" cy="165.2" r="0.6"><animate attributeName="opacity" values="0.15;0.85;0.15" dur="5.6s" begin="1.2s" repeatCount="indefinite"/></circle><circle cx="497" cy="162.3" r="0.9"><animate attributeName="opacity" values="0.15;0.85;0.15" dur="6.9s" begin="6.4s" repeatCount="indefinite"/></circle><circle cx="1022.7" cy="122.9" r="1.1"><animate attributeName="opacity" values="0.15;0.85;0.15" dur="4.6s" begin="7.1s" repeatCount="indefinite"/></circle><circle cx="950.3" cy="144.3" r="0.9"><animate attributeName="opacity" values="0.15;0.85;0.15" dur="9.4s" begin="4.8s" repeatCount="indefinite"/></circle><circle cx="1142" cy="100" r="1.0"><animate attributeName="opacity" values="0.15;0.85;0.15" dur="8.5s" begin="3.0s" repeatCount="indefinite"/></circle><circle cx="201.4" cy="166.4" r="1.2"><animate attributeName="opacity" values="0.15;0.85;0.15" dur="6.9s" begin="4.6s" repeatCount="indefinite"/></circle><circle cx="538" cy="67.1" r="0.8"><animate attributeName="opacity" values="0.15;0.85;0.15" dur="3.2s" begin="1.8s" repeatCount="indefinite"/></circle><circle cx="152.2" cy="172.2" r="0.7"><animate attributeName="opacity" values="0.15;0.85;0.15" dur="9.0s" begin="4.2s" repeatCount="indefinite"/></circle><circle cx="1039.7" cy="210.9" r="0.9"><animate attributeName="opacity" values="0.15;0.85;0.15" dur="5.2s" begin="7.6s" repeatCount="indefinite"/></circle><circle cx="673" cy="140" r="1.0"><animate attributeName="opacity" values="0.15;0.85;0.15" dur="9.9s" begin="4.5s" repeatCount="indefinite"/></circle><circle cx="766.5" cy="99.1" r="1.3"><animate attributeName="opacity" values="0.15;0.85;0.15" dur="5.7s" begin="5.6s" repeatCount="indefinite"/></circle><circle cx="712.7" cy="224.1" r="1.1"><animate attributeName="opacity" values="0.15;0.85;0.15" dur="7.5s" begin="4.8s" repeatCount="indefinite"/></circle><circle cx="1030.2" cy="123.9" r="0.7"><animate attributeName="opacity" values="0.15;0.85;0.15" dur="4.7s" begin="6.0s" repeatCount="indefinite"/></circle><circle cx="974.6" cy="147.7" r="0.9"><animate attributeName="opacity" values="0.15;0.85;0.15" dur="5.9s" begin="4.8s" repeatCount="indefinite"/></circle><circle cx="184.6" cy="204.6" r="1.1"><animate attributeName="opacity" values="0.15;0.85;0.15" dur="5.9s" begin="1.8s" repeatCount="indefinite"/></circle><circle cx="817.6" cy="97.8" r="1.4"><animate attributeName="opacity" values="0.15;0.85;0.15" dur="10.0s" begin="2.4s" repeatCount="indefinite"/></circle><circle cx="1153.6" cy="179.6" r="1.3"><animate attributeName="opacity" values="0.15;0.85;0.15" dur="8.7s" begin="3.3s" repeatCount="indefinite"/></circle><circle cx="134.9" cy="119.4" r="0.9"><animate attributeName="opacity" values="0.15;0.85;0.15" dur="3.0s" begin="0.1s" repeatCount="indefinite"/></circle><circle cx="937.5" cy="21.3" r="1.4"><animate attributeName="opacity" values="0.15;0.85;0.15" dur="8.5s" begin="5.4s" repeatCount="indefinite"/></circle><circle cx="394.9" cy="29.8" r="0.8"><animate attributeName="opacity" values="0.15;0.85;0.15" dur="9.0s" begin="5.2s" repeatCount="indefinite"/></circle><circle cx="693.6" cy="96.2" r="1.7"><animate attributeName="opacity" values="0.15;0.85;0.15" dur="7.2s" begin="6.7s" repeatCount="indefinite"/></circle><circle cx="283.3" cy="166.1" r="1.1"><animate attributeName="opacity" values="0.15;0.85;0.15" dur="5.6s" begin="3.9s" repeatCount="indefinite"/></circle><circle cx="883.7" cy="138.1" r="0.7"><animate attributeName="opacity" values="0.15;0.85;0.15" dur="9.7s" begin="4.7s" repeatCount="indefinite"/></circle><circle cx="224.7" cy="179.3" r="0.9"><animate attributeName="opacity" values="0.15;0.85;0.15" dur="7.2s" begin="5.5s" repeatCount="indefinite"/></circle><circle cx="483.3" cy="190.6" r="1.2"><animate attributeName="opacity" values="0.15;0.85;0.15" dur="6.4s" begin="7.1s" repeatCount="indefinite"/></circle><circle cx="715.5" cy="219.8" r="1.3"><animate attributeName="opacity" values="0.15;0.85;0.15" dur="6.3s" begin="0.0s" repeatCount="indefinite"/></circle><circle cx="358.2" cy="205.3" r="1.4"><animate attributeName="opacity" values="0.15;0.85;0.15" dur="3.4s" begin="0.9s" repeatCount="indefinite"/></circle><circle cx="226.7" cy="60" r="1.6"><animate attributeName="opacity" values="0.15;0.85;0.15" dur="3.1s" begin="3.1s" repeatCount="indefinite"/></circle><circle cx="68" cy="181.6" r="0.8"><animate attributeName="opacity" values="0.15;0.85;0.15" dur="3.3s" begin="1.5s" repeatCount="indefinite"/></circle><circle cx="760.2" cy="39.1" r="1.2"><animate attributeName="opacity" values="0.15;0.85;0.15" dur="9.2s" begin="7.7s" repeatCount="indefinite"/></circle><circle cx="1095.2" cy="186.6" r="1.3"><animate attributeName="opacity" values="0.15;0.85;0.15" dur="7.1s" begin="3.0s" repeatCount="indefinite"/></circle><circle cx="932.2" cy="118" r="0.9"><animate attributeName="opacity" values="0.15;0.85;0.15" dur="4.6s" begin="6.6s" repeatCount="indefinite"/></circle><circle cx="650.5" cy="53.4" r="0.7"><animate attributeName="opacity" values="0.15;0.85;0.15" dur="7.6s" begin="7.3s" repeatCount="indefinite"/></circle><circle cx="411.7" cy="97.1" r="0.9"><animate attributeName="opacity" values="0.15;0.85;0.15" dur="6.1s" begin="1.7s" repeatCount="indefinite"/></circle></g>
<g><circle cx="1046" cy="98" r="58" fill="#e9e2cf" opacity="0.1"/><mask id="dark-crescent"><circle cx="1046" cy="98" r="27" fill="#ffffff"/><circle cx="1059" cy="86" r="24" fill="#000000"/></mask><circle cx="1046" cy="98" r="27" fill="#e9e2cf" opacity="0.92" mask="url(#dark-crescent)"/></g>
<g opacity="0.85"><g transform="translate(1330,-10)"><animateTransform attributeName="transform" type="translate" values="1330,-10;-120,14" dur="46s" repeatCount="indefinite"/><path d="M0 0 L17 0 L23 -5 L26 -5 L23 0 L30 0 L33 -3 L35.5 -3 L34 0 L36 0.9 L34 1.8 L35.5 1.8 L33 4.8 L30 4.8 L26.5 1.8 L23 1.8 L26 6.6 L23 6.6 L17 1.8 L0 1.8 Z" fill="#0a0f1e"/><circle cx="34" cy="-3" r="1.5" fill="#6ef0a8"><animate attributeName="opacity" values="1;0.1;1" dur="1.1s" repeatCount="indefinite"/></circle><circle cx="34" cy="4.8" r="1.5" fill="#ff5a5a"><animate attributeName="opacity" values="1;0.1;1" dur="1.1s" begin="0.55s" repeatCount="indefinite"/></circle><circle cx="1" cy="0.9" r="1.6" fill="#ffffff" opacity="0"><animate attributeName="opacity" values="0;0;1;0;0" dur="2.4s" repeatCount="indefinite"/></circle></g></g>
<g fill="#141c30" opacity="0.95"><animateTransform attributeName="transform" type="translate" values="-9,0;9,0;-9,0" dur="120s" repeatCount="indefinite"/><rect x="-70" y="279" width="60" height="65"/><rect x="-56" y="236" width="33" height="43"/><rect x="2" y="271" width="83" height="73"/><rect x="93" y="275" width="46" height="69"/><rect x="107" y="229" width="2" height="46"/><rect x="146" y="261" width="61" height="83"/><rect x="164" y="236" width="25" height="25"/><rect x="221" y="275" width="62" height="69"/><rect x="294" y="287" width="41" height="57"/><rect x="346" y="263" width="88" height="81"/><rect x="441" y="271" width="52" height="73"/><rect x="504" y="245" width="87" height="99"/><rect x="603" y="268" width="53" height="76"/><rect x="669" y="261" width="77" height="83"/><rect x="759" y="229" width="70" height="115"/><rect x="837" y="245" width="54" height="99"/><rect x="897" y="225" width="82" height="119"/><rect x="921" y="182" width="34" height="43"/><rect x="992" y="234" width="84" height="110"/><rect x="1083" y="258" width="77" height="86"/><rect x="1169" y="225" width="71" height="119"/><rect x="1248" y="257" width="54" height="87"/></g>
<rect x="0" y="286" width="1200" height="106" fill="url(#dark-fog)"/>
<g fill="#0a0f1e"><animateTransform attributeName="transform" type="translate" values="5,0;-5,0;5,0" dur="90s" repeatCount="indefinite"/><rect x="-70" y="289" width="68" height="103"/><rect x="-34" y="248" width="2" height="41"/><rect x="2" y="287" width="86" height="105"/><rect x="101" y="272" width="85" height="120"/><rect x="191" y="279" width="60" height="113"/><rect x="260" y="262" width="82" height="130"/><rect x="284" y="235" width="34" height="27"/><rect x="346" y="239" width="98" height="153"/><rect x="371" y="195" width="49" height="44"/><rect x="453" y="196" width="64" height="196"/><rect x="530" y="208" width="70" height="184"/><rect x="606" y="267" width="94" height="125"/><rect x="704" y="285" width="76" height="107"/><rect x="793" y="250" width="46" height="142"/><rect x="845" y="192" width="47" height="200"/><rect x="874" y="168" width="2" height="24"/><rect x="900" y="238" width="99" height="154"/><rect x="1013" y="208" width="51" height="184"/><rect x="1072" y="216" width="73" height="176"/><rect x="1102" y="180" width="2" height="36"/><rect x="1151" y="286" width="86" height="106"/><rect x="1177" y="246" width="2" height="40"/><rect x="1249" y="279" width="82" height="113"/></g>
<g fill="#f0b23c" opacity="0.92"><rect x="54" y="328" width="6" height="8"/><rect x="67" y="313" width="6" height="8"/><rect x="114" y="298" width="6" height="8"/><rect x="140" y="343" width="6" height="8"/><rect x="140" y="373" width="6" height="8"/><rect x="153" y="373" width="6" height="8"/><rect x="166" y="328" width="6" height="8"/><rect x="166" y="343" width="6" height="8"/><rect x="217" y="365" width="6" height="8"/><rect x="297" y="318" width="6" height="8"/><rect x="297" y="363" width="6" height="8"/><rect x="310" y="333" width="6" height="8"/><rect x="372" y="295" width="6" height="8"/><rect x="385" y="370" width="6" height="8"/><rect x="462" y="372" width="6" height="8"/><rect x="475" y="267" width="6" height="8"/><rect x="475" y="312" width="6" height="8"/><rect x="488" y="267" width="6" height="8"/><rect x="501" y="327" width="6" height="8"/><rect x="542" y="294" width="6" height="8"/><rect x="555" y="264" width="6" height="8"/><rect x="568" y="309" width="6" height="8"/><rect x="581" y="249" width="6" height="8"/><rect x="630" y="308" width="6" height="8"/><rect x="643" y="278" width="6" height="8"/><rect x="643" y="308" width="6" height="8"/><rect x="643" y="353" width="6" height="8"/><rect x="669" y="338" width="6" height="8"/><rect x="682" y="353" width="6" height="8"/><rect x="725" y="371" width="6" height="8"/><rect x="738" y="341" width="6" height="8"/><rect x="764" y="326" width="6" height="8"/><rect x="819" y="291" width="6" height="8"/><rect x="858" y="263" width="6" height="8"/><rect x="858" y="323" width="6" height="8"/><rect x="858" y="368" width="6" height="8"/><rect x="871" y="293" width="6" height="8"/><rect x="913" y="354" width="6" height="8"/><rect x="913" y="369" width="6" height="8"/><rect x="965" y="294" width="6" height="8"/><rect x="1022" y="249" width="6" height="8"/><rect x="1085" y="272" width="6" height="8"/><rect x="1085" y="332" width="6" height="8"/><rect x="1098" y="377" width="6" height="8"/><rect x="1164" y="372" width="6" height="8"/><rect x="1190" y="327" width="6" height="8"/><rect x="1273" y="365" width="6" height="8"/><rect x="1312" y="305" width="6" height="8"/></g><g fill="#ffd489" opacity="0.92"><rect x="-59" y="315" width="6" height="8"/><rect x="-46" y="315" width="6" height="8"/><rect x="-33" y="315" width="6" height="8"/><rect x="-33" y="345" width="6" height="8"/><rect x="-33" y="360" width="6" height="8"/><rect x="-20" y="315" width="6" height="8"/><rect x="28" y="328" width="6" height="8"/><rect x="28" y="358" width="6" height="8"/><rect x="114" y="373" width="6" height="8"/><rect x="153" y="328" width="6" height="8"/><rect x="217" y="290" width="6" height="8"/><rect x="217" y="380" width="6" height="8"/><rect x="230" y="350" width="6" height="8"/><rect x="271" y="303" width="6" height="8"/><rect x="284" y="378" width="6" height="8"/><rect x="310" y="303" width="6" height="8"/><rect x="323" y="273" width="6" height="8"/><rect x="359" y="370" width="6" height="8"/><rect x="385" y="340" width="6" height="8"/><rect x="385" y="355" width="6" height="8"/><rect x="398" y="295" width="6" height="8"/><rect x="411" y="265" width="6" height="8"><animate attributeName="opacity" values="1;1;0.15;1;1" dur="3.7s" begin="2.8s" repeatCount="indefinite"/></rect><rect x="411" y="310" width="6" height="8"/><rect x="424" y="340" width="6" height="8"/><rect x="475" y="222" width="6" height="8"/><rect x="488" y="357" width="6" height="8"/><rect x="555" y="234" width="6" height="8"/><rect x="568" y="339" width="6" height="8"/><rect x="581" y="309" width="6" height="8"/><rect x="581" y="369" width="6" height="8"/><rect x="630" y="338" width="6" height="8"><animate attributeName="opacity" values="1;1;0.15;1;1" dur="5.4s" begin="8.2s" repeatCount="indefinite"/></rect><rect x="630" y="383" width="6" height="8"/><rect x="656" y="383" width="6" height="8"/><rect x="669" y="353" width="6" height="8"/><rect x="682" y="323" width="6" height="8"/><rect x="819" y="306" width="6" height="8"/><rect x="819" y="321" width="6" height="8"/><rect x="871" y="263" width="6" height="8"/><rect x="913" y="339" width="6" height="8"/><rect x="926" y="309" width="6" height="8"/><rect x="965" y="324" width="6" height="8"/><rect x="1022" y="324" width="6" height="8"/><rect x="1085" y="302" width="6" height="8"/><rect x="1098" y="347" width="6" height="8"/><rect x="1124" y="362" width="6" height="8"/><rect x="1124" y="377" width="6" height="8"/><rect x="1164" y="312" width="6" height="8"/><rect x="1260" y="290" width="6" height="8"/></g><g fill="#e0913c" opacity="0.92"><rect x="-59" y="330" width="6" height="8"/><rect x="-20" y="330" width="6" height="8"/><rect x="54" y="373" width="6" height="8"/><rect x="114" y="343" width="6" height="8"/><rect x="127" y="298" width="6" height="8"/><rect x="127" y="373" width="6" height="8"/><rect x="140" y="328" width="6" height="8"/><rect x="230" y="320" width="6" height="8"><animate attributeName="opacity" values="1;1;0.15;1;1" dur="5.7s" begin="6.7s" repeatCount="indefinite"/></rect><rect x="230" y="380" width="6" height="8"><animate attributeName="opacity" values="1;1;0.15;1;1" dur="8.6s" begin="3.6s" repeatCount="indefinite"/></rect><rect x="284" y="363" width="6" height="8"/><rect x="297" y="273" width="6" height="8"/><rect x="297" y="288" width="6" height="8"/><rect x="323" y="303" width="6" height="8"/><rect x="359" y="325" width="6" height="8"/><rect x="398" y="310" width="6" height="8"/><rect x="411" y="250" width="6" height="8"/><rect x="411" y="355" width="6" height="8"/><rect x="462" y="327" width="6" height="8"/><rect x="488" y="207" width="6" height="8"/><rect x="488" y="222" width="6" height="8"/><rect x="501" y="252" width="6" height="8"/><rect x="555" y="279" width="6" height="8"/><rect x="555" y="369" width="6" height="8"/><rect x="568" y="249" width="6" height="8"/><rect x="581" y="339" width="6" height="8"/><rect x="617" y="293" width="6" height="8"/><rect x="643" y="338" width="6" height="8"/><rect x="643" y="383" width="6" height="8"/><rect x="669" y="293" width="6" height="8"/><rect x="669" y="308" width="6" height="8"/><rect x="712" y="311" width="6" height="8"><animate attributeName="opacity" values="1;1;0.15;1;1" dur="3.1s" begin="0.9s" repeatCount="indefinite"/></rect><rect x="712" y="371" width="6" height="8"/><rect x="738" y="311" width="6" height="8"/><rect x="738" y="356" width="6" height="8"/><rect x="738" y="371" width="6" height="8"/><rect x="751" y="296" width="6" height="8"/><rect x="806" y="306" width="6" height="8"/><rect x="871" y="368" width="6" height="8"/><rect x="926" y="339" width="6" height="8"/><rect x="939" y="264" width="6" height="8"/><rect x="952" y="249" width="6" height="8"><animate attributeName="opacity" values="1;1;0.15;1;1" dur="8.6s" begin="3.3s" repeatCount="indefinite"/></rect><rect x="952" y="369" width="6" height="8"/><rect x="1035" y="339" width="6" height="8"/><rect x="1048" y="219" width="6" height="8"/><rect x="1048" y="279" width="6" height="8"/><rect x="1048" y="294" width="6" height="8"/><rect x="1085" y="287" width="6" height="8"/><rect x="1098" y="257" width="6" height="8"/><rect x="1111" y="242" width="6" height="8"/><rect x="1111" y="287" width="6" height="8"/><rect x="1111" y="377" width="6" height="8"><animate attributeName="opacity" values="1;1;0.15;1;1" dur="4.0s" begin="3.8s" repeatCount="indefinite"/></rect><rect x="1124" y="272" width="6" height="8"/><rect x="1124" y="317" width="6" height="8"/><rect x="1177" y="372" width="6" height="8"/><rect x="1216" y="297" width="6" height="8"><animate attributeName="opacity" values="1;1;0.15;1;1" dur="9.0s" begin="3.5s" repeatCount="indefinite"/></rect><rect x="1260" y="335" width="6" height="8"/><rect x="1286" y="365" width="6" height="8"/><rect x="1312" y="365" width="6" height="8"/></g><g fill="#ffc35e" opacity="0.92"><rect x="-59" y="300" width="6" height="8"/><rect x="-59" y="345" width="6" height="8"/><rect x="-59" y="375" width="6" height="8"/><rect x="67" y="298" width="6" height="8"><animate attributeName="opacity" values="1;1;0.15;1;1" dur="5.7s" begin="6.0s" repeatCount="indefinite"/></rect><rect x="166" y="358" width="6" height="8"/><rect x="230" y="305" width="6" height="8"/><rect x="297" y="378" width="6" height="8"/><rect x="385" y="265" width="6" height="8"/><rect x="398" y="280" width="6" height="8"/><rect x="424" y="280" width="6" height="8"/><rect x="462" y="252" width="6" height="8"/><rect x="462" y="312" width="6" height="8"/><rect x="488" y="372" width="6" height="8"/><rect x="501" y="207" width="6" height="8"/><rect x="542" y="234" width="6" height="8"/><rect x="542" y="339" width="6" height="8"><animate attributeName="opacity" values="1;1;0.15;1;1" dur="7.1s" begin="2.7s" repeatCount="indefinite"/></rect><rect x="555" y="294" width="6" height="8"/><rect x="617" y="323" width="6" height="8"/><rect x="617" y="368" width="6" height="8"/><rect x="630" y="293" width="6" height="8"/><rect x="630" y="368" width="6" height="8"/><rect x="656" y="323" width="6" height="8"/><rect x="669" y="383" width="6" height="8"/><rect x="725" y="341" width="6" height="8"/><rect x="738" y="326" width="6" height="8"/><rect x="858" y="203" width="6" height="8"/><rect x="871" y="218" width="6" height="8"/><rect x="952" y="324" width="6" height="8"/><rect x="978" y="264" width="6" height="8"/><rect x="978" y="309" width="6" height="8"/><rect x="1035" y="264" width="6" height="8"/><rect x="1035" y="354" width="6" height="8"/><rect x="1048" y="324" width="6" height="8"/><rect x="1124" y="257" width="6" height="8"/><rect x="1164" y="357" width="6" height="8"/><rect x="1177" y="297" width="6" height="8"/><rect x="1203" y="342" width="6" height="8"/><rect x="1273" y="335" width="6" height="8"/><rect x="1286" y="350" width="6" height="8"><animate attributeName="opacity" values="1;1;0.15;1;1" dur="6.4s" begin="5.8s" repeatCount="indefinite"/></rect><rect x="1286" y="380" width="6" height="8"/></g><g fill="#8fd3ff" opacity="0.92"><rect x="-33" y="300" width="6" height="8"/><rect x="153" y="283" width="6" height="8"/><rect x="359" y="265" width="6" height="8"/><rect x="555" y="354" width="6" height="8"/><rect x="751" y="371" width="6" height="8"/><rect x="871" y="338" width="6" height="8"/><rect x="926" y="264" width="6" height="8"/><rect x="1085" y="377" width="6" height="8"/><rect x="1124" y="347" width="6" height="8"/></g>
<g><rect x="742" y="178" width="54" height="214" fill="#0a0f1e"/><rect x="767" y="134" width="3" height="44" fill="#0a0f1e"/><circle cx="768.5" cy="132" r="2.2" fill="#ff5a5a"><animate attributeName="opacity" values="1;0.05;1" dur="1.9s" repeatCount="indefinite"/></circle><rect x="751" y="370" width="36" height="7" fill="#ffd489" opacity="0"><animate attributeName="opacity" values="0;0.95;0.95;0.2;0" keyTimes="0;0.04;0.72;0.86;1" dur="9s" begin="0.00s" repeatCount="indefinite"/></rect><rect x="751" y="355" width="36" height="7" fill="#ffd489" opacity="0"><animate attributeName="opacity" values="0;0.95;0.95;0.2;0" keyTimes="0;0.04;0.72;0.86;1" dur="9s" begin="0.34s" repeatCount="indefinite"/></rect><rect x="751" y="340" width="36" height="7" fill="#ffd489" opacity="0"><animate attributeName="opacity" values="0;0.95;0.95;0.2;0" keyTimes="0;0.04;0.72;0.86;1" dur="9s" begin="0.68s" repeatCount="indefinite"/></rect><rect x="751" y="325" width="36" height="7" fill="#ffd489" opacity="0"><animate attributeName="opacity" values="0;0.95;0.95;0.2;0" keyTimes="0;0.04;0.72;0.86;1" dur="9s" begin="1.02s" repeatCount="indefinite"/></rect><rect x="751" y="310" width="36" height="7" fill="#ffd489" opacity="0"><animate attributeName="opacity" values="0;0.95;0.95;0.2;0" keyTimes="0;0.04;0.72;0.86;1" dur="9s" begin="1.36s" repeatCount="indefinite"/></rect><rect x="751" y="295" width="36" height="7" fill="#ffd489" opacity="0"><animate attributeName="opacity" values="0;0.95;0.95;0.2;0" keyTimes="0;0.04;0.72;0.86;1" dur="9s" begin="1.70s" repeatCount="indefinite"/></rect><rect x="751" y="280" width="36" height="7" fill="#ffd489" opacity="0"><animate attributeName="opacity" values="0;0.95;0.95;0.2;0" keyTimes="0;0.04;0.72;0.86;1" dur="9s" begin="2.04s" repeatCount="indefinite"/></rect><rect x="751" y="265" width="36" height="7" fill="#ffd489" opacity="0"><animate attributeName="opacity" values="0;0.95;0.95;0.2;0" keyTimes="0;0.04;0.72;0.86;1" dur="9s" begin="2.38s" repeatCount="indefinite"/></rect><rect x="751" y="250" width="36" height="7" fill="#ffd489" opacity="0"><animate attributeName="opacity" values="0;0.95;0.95;0.2;0" keyTimes="0;0.04;0.72;0.86;1" dur="9s" begin="2.72s" repeatCount="indefinite"/></rect><rect x="751" y="235" width="36" height="7" fill="#ffd489" opacity="0"><animate attributeName="opacity" values="0;0.95;0.95;0.2;0" keyTimes="0;0.04;0.72;0.86;1" dur="9s" begin="3.06s" repeatCount="indefinite"/></rect><rect x="751" y="220" width="36" height="7" fill="#ffd489" opacity="0"><animate attributeName="opacity" values="0;0.95;0.95;0.2;0" keyTimes="0;0.04;0.72;0.86;1" dur="9s" begin="3.40s" repeatCount="indefinite"/></rect><rect x="751" y="205" width="36" height="7" fill="#ffd489" opacity="0"><animate attributeName="opacity" values="0;0.95;0.95;0.2;0" keyTimes="0;0.04;0.72;0.86;1" dur="9s" begin="3.74s" repeatCount="indefinite"/></rect><rect x="751" y="190" width="36" height="7" fill="#ffd489" opacity="0"><animate attributeName="opacity" values="0;0.95;0.95;0.2;0" keyTimes="0;0.04;0.72;0.86;1" dur="9s" begin="4.08s" repeatCount="indefinite"/></rect></g>
<circle cx="-33" cy="246" r="2" fill="#ff5a5a"><animate attributeName="opacity" values="1;0.05;1" dur="2.5s" begin="1.0s" repeatCount="indefinite"/></circle><circle cx="875" cy="166" r="2" fill="#ff5a5a"><animate attributeName="opacity" values="1;0.05;1" dur="1.4s" begin="1.3s" repeatCount="indefinite"/></circle><circle cx="1103" cy="178" r="2" fill="#ff5a5a"><animate attributeName="opacity" values="1;0.05;1" dur="2.7s" begin="0.2s" repeatCount="indefinite"/></circle><circle cx="1178" cy="244" r="2" fill="#ff5a5a"><animate attributeName="opacity" values="1;0.05;1" dur="2.2s" begin="0.9s" repeatCount="indefinite"/></circle>
<g fill="#04060c"><rect x="-70" y="323" width="126" height="117"/><rect x="64" y="339" width="71" height="101"/><rect x="146" y="350" width="101" height="90"/><rect x="180" y="309" width="34" height="41"/><rect x="256" y="336" width="119" height="104"/><rect x="381" y="308" width="121" height="132"/><rect x="413" y="287" width="58" height="21"/><rect x="508" y="296" width="122" height="144"/><rect x="637" y="277" width="120" height="163"/><rect x="766" y="289" width="117" height="151"/><rect x="895" y="299" width="57" height="141"/><rect x="961" y="312" width="101" height="128"/><rect x="986" y="273" width="51" height="39"/><rect x="1073" y="313" width="128" height="127"/><rect x="1169" y="275" width="2" height="38"/><rect x="1212" y="329" width="88" height="111"/><rect x="1241" y="296" width="31" height="33"/></g>
<g fill="#f0b23c" opacity="0.5"><rect x="89" y="380" width="6" height="8"/><rect x="180" y="376" width="6" height="8"/><rect x="180" y="406" width="6" height="8"/><rect x="232" y="361" width="6" height="8"/><rect x="232" y="406" width="6" height="8"/><rect x="533" y="397" width="6" height="8"/><rect x="598" y="367" width="6" height="8"/><rect x="713" y="288" width="6" height="8"/><rect x="775" y="405" width="6" height="8"/><rect x="840" y="315" width="6" height="8"/><rect x="907" y="370" width="6" height="8"/><rect x="907" y="400" width="6" height="8"/><rect x="933" y="370" width="6" height="8"/><rect x="969" y="428" width="6" height="8"/><rect x="995" y="383" width="6" height="8"/><rect x="1094" y="339" width="6" height="8"/><rect x="1107" y="339" width="6" height="8"/><rect x="1146" y="324" width="6" height="8"/><rect x="1159" y="369" width="6" height="8"/><rect x="1259" y="400" width="6" height="8"/></g><g fill="#ffd489" opacity="0.5"><rect x="-56" y="349" width="6" height="8"/><rect x="-43" y="364" width="6" height="8"><animate attributeName="opacity" values="1;1;0.15;1;1" dur="6.8s" begin="0.8s" repeatCount="indefinite"/></rect><rect x="102" y="365" width="6" height="8"/><rect x="206" y="421" width="6" height="8"/><rect x="357" y="347" width="6" height="8"/><rect x="357" y="422" width="6" height="8"/><rect x="418" y="349" width="6" height="8"/><rect x="457" y="319" width="6" height="8"/><rect x="470" y="409" width="6" height="8"/><rect x="661" y="303" width="6" height="8"/><rect x="866" y="375" width="6" height="8"/><rect x="907" y="355" width="6" height="8"/><rect x="1021" y="323" width="6" height="8"/><rect x="1047" y="383" width="6" height="8"/><rect x="1133" y="354" width="6" height="8"/><rect x="1146" y="399" width="6" height="8"/><rect x="1172" y="429" width="6" height="8"/><rect x="1233" y="340" width="6" height="8"/></g><g fill="#e0913c" opacity="0.5"><rect x="-43" y="349" width="6" height="8"/><rect x="-17" y="394" width="6" height="8"/><rect x="9" y="349" width="6" height="8"/><rect x="167" y="361" width="6" height="8"/><rect x="167" y="391" width="6" height="8"/><rect x="167" y="406" width="6" height="8"/><rect x="180" y="421" width="6" height="8"/><rect x="193" y="361" width="6" height="8"/><rect x="266" y="392" width="6" height="8"><animate attributeName="opacity" values="1;1;0.15;1;1" dur="5.6s" begin="3.5s" repeatCount="indefinite"/></rect><rect x="305" y="347" width="6" height="8"/><rect x="318" y="362" width="6" height="8"/><rect x="318" y="377" width="6" height="8"/><rect x="318" y="407" width="6" height="8"><animate attributeName="opacity" values="1;1;0.15;1;1" dur="3.5s" begin="0.9s" repeatCount="indefinite"/></rect><rect x="344" y="347" width="6" height="8"/><rect x="431" y="319" width="6" height="8"/><rect x="431" y="379" width="6" height="8"><animate attributeName="opacity" values="1;1;0.15;1;1" dur="5.6s" begin="2.2s" repeatCount="indefinite"/></rect><rect x="457" y="424" width="6" height="8"/><rect x="483" y="319" width="6" height="8"/><rect x="520" y="322" width="6" height="8"><animate attributeName="opacity" values="1;1;0.15;1;1" dur="8.5s" begin="0.8s" repeatCount="indefinite"/></rect><rect x="520" y="412" width="6" height="8"/><rect x="572" y="382" width="6" height="8"/><rect x="585" y="322" width="6" height="8"/><rect x="661" y="378" width="6" height="8"/><rect x="661" y="408" width="6" height="8"/><rect x="788" y="330" width="6" height="8"/><rect x="840" y="420" width="6" height="8"><animate attributeName="opacity" values="1;1;0.15;1;1" dur="8.8s" begin="3.0s" repeatCount="indefinite"/></rect><rect x="853" y="405" width="6" height="8"/><rect x="933" y="340" width="6" height="8"><animate attributeName="opacity" values="1;1;0.15;1;1" dur="4.5s" begin="4.9s" repeatCount="indefinite"/></rect><rect x="982" y="338" width="6" height="8"/><rect x="1008" y="383" width="6" height="8"/><rect x="1021" y="383" width="6" height="8"/><rect x="1021" y="398" width="6" height="8"/><rect x="1120" y="414" width="6" height="8"/><rect x="1185" y="414" width="6" height="8"/><rect x="1220" y="400" width="6" height="8"/><rect x="1246" y="385" width="6" height="8"/><rect x="1272" y="340" width="6" height="8"/><rect x="1272" y="430" width="6" height="8"/></g><g fill="#ffc35e" opacity="0.5"><rect x="22" y="334" width="6" height="8"/><rect x="115" y="410" width="6" height="8"/><rect x="232" y="391" width="6" height="8"/><rect x="405" y="364" width="6" height="8"/><rect x="572" y="337" width="6" height="8"/><rect x="572" y="412" width="6" height="8"/><rect x="674" y="363" width="6" height="8"/><rect x="687" y="288" width="6" height="8"/><rect x="827" y="420" width="6" height="8"/><rect x="969" y="323" width="6" height="8"/><rect x="1047" y="338" width="6" height="8"/><rect x="1047" y="398" width="6" height="8"><animate attributeName="opacity" values="1;1;0.15;1;1" dur="3.8s" begin="1.6s" repeatCount="indefinite"/></rect><rect x="1107" y="414" width="6" height="8"/><rect x="1172" y="339" width="6" height="8"/><rect x="1220" y="430" width="6" height="8"/></g><g fill="#8fd3ff" opacity="0.5"><rect x="22" y="364" width="6" height="8"/><rect x="266" y="407" width="6" height="8"/><rect x="279" y="377" width="6" height="8"/><rect x="444" y="319" width="6" height="8"/><rect x="533" y="337" width="6" height="8"/><rect x="559" y="352" width="6" height="8"/><rect x="969" y="353" width="6" height="8"/></g>
<text x="70" y="122" font-family='"DejaVu Sans","Segoe UI","Noto Sans",Verdana,system-ui,sans-serif' font-size="60" font-weight="700" letter-spacing="4" fill="#eef1f7">ß€₪¢€ ß</text>
<text x="72" y="156" font-family='ui-monospace,"DejaVu Sans Mono","SFMono-Regular",Menlo,Consolas,monospace' font-size="16" letter-spacing="5.5" fill="#f0b23c">cybetyar</text>
<rect x="72" y="176" width="196" height="1" fill="#232c42"/>
<text x="72" y="203" font-family='ui-monospace,"DejaVu Sans Mono","SFMono-Regular",Menlo,Consolas,monospace' font-size="15" letter-spacing="1.2" fill="#8b96ad">full-stack developer</text>
<rect x="288" y="192" width="8" height="14" fill="#f0b23c"><animate attributeName="opacity" values="1;1;0;0" dur="1.15s" repeatCount="indefinite"/></rect>
<rect x="0.5" y="0.5" width="1199" height="439" rx="10" fill="none" stroke="#2a344b" stroke-opacity="0.7"/>
</g>
</svg>
